<?xml version="1.0" standalone="no"?>
<!DOCTYPE svg PUBLIC "-//W3C//DTD SVG 20010904//EN"
 "http://www.w3.org/TR/2001/REC-SVG-20010904/DTD/svg10.dtd">
<svg version="1.0" xmlns="http://www.w3.org/2000/svg"
 width="197.000000pt" height="43.000000pt" viewBox="0 0 197.000000 43.000000"
 preserveAspectRatio="xMidYMid meet">

<g transform="translate(0.000000,43.000000) scale(0.100000,-0.100000)"
fill="#000000" stroke="none">
<path d="M195 384 c-19 -20 -16 -43 8 -58 37 -23 77 35 41 61 -23 17 -29 16
-49 -3z"/>
<path d="M189 301 c-43 -14 -69 -31 -69 -47 0 -22 30 -64 46 -64 12 0 13 -15
8 -81 -7 -76 -6 -81 12 -77 16 3 20 14 22 63 4 69 22 101 22 38 0 -63 11 -103
28 -103 12 0 14 17 7 119 l-7 120 54 3 c39 2 53 7 53 18 0 12 -16 15 -75 17
-41 1 -87 -2 -101 -6z m-9 -62 c0 -11 -4 -17 -10 -14 -5 3 -10 13 -10 21 0 8
5 14 10 14 6 0 10 -9 10 -21z"/>
<path d="M940 190 c0 -120 17 -154 22 -43 2 42 8 68 16 71 9 3 12 -15 12 -67
0 -57 3 -71 15 -71 13 0 15 13 13 78 -3 77 -3 77 -30 77 -25 -1 -28 3 -28 32
0 18 -4 33 -10 33 -6 0 -10 -43 -10 -110z"/>
<path d="M402 268 c-19 -19 -14 -42 18 -86 32 -45 39 -82 15 -82 -8 0 -15 9
-15 20 0 11 -7 20 -15 20 -18 0 -20 -31 -3 -48 15 -15 51 -15 66 0 20 20 14
53 -18 96 -16 23 -30 49 -30 57 0 22 28 18 35 -5 7 -23 25 -27 25 -6 0 31 -13
46 -39 46 -15 0 -32 -5 -39 -12z"/>
<path d="M1635 268 c-2 -7 -9 -44 -15 -83 -7 -38 -14 -78 -17 -87 -3 -11 1
-18 10 -18 8 0 17 9 20 20 7 26 34 26 42 0 3 -11 11 -20 17 -20 11 0 6 64 -13
153 -10 45 -34 64 -44 35z m29 -85 c5 -35 3 -43 -9 -43 -16 0 -18 12 -9 59 8
39 9 37 18 -16z"/>
<path d="M68 203 c-12 -26 -23 -68 -26 -93 l-4 -46 55 0 c53 0 56 1 61 29 10
52 7 66 -29 113 l-35 46 -22 -49z"/>
<path d="M280 203 c0 -26 3 -72 6 -100 6 -47 10 -53 30 -53 12 0 25 3 27 8 3
4 -5 47 -17 96 -25 102 -46 125 -46 49z"/>
<path d="M512 163 l3 -78 38 -2 37 -1 0 79 c0 96 -18 106 -22 12 -2 -53 -6
-68 -18 -68 -12 0 -16 15 -18 68 -2 37 -7 67 -13 67 -6 0 -9 -31 -7 -77z"/>
<path d="M630 133 c0 -62 4 -103 10 -103 6 0 10 13 10 29 0 25 3 28 21 24 29
-8 39 12 39 77 0 68 -7 79 -48 78 l-32 -1 0 -104z m50 26 c0 -81 -24 -77 -28
4 -2 46 0 57 13 57 12 0 15 -13 15 -61z"/>
<path d="M747 233 c-10 -9 -8 -126 2 -141 11 -18 51 -12 65 10 15 24 -3 37
-19 14 -17 -23 -35 -13 -35 20 0 20 5 24 30 24 25 0 30 4 30 24 0 41 -11 56
-39 56 -15 0 -31 -3 -34 -7z m43 -33 c0 -11 -7 -20 -15 -20 -15 0 -21 21 -8
33 12 13 23 7 23 -13z"/>
<path d="M850 160 c0 -47 4 -80 10 -80 6 0 10 30 10 70 0 40 4 70 10 70 6 0
10 -7 10 -15 0 -18 16 -20 22 -2 9 23 -4 37 -33 37 l-29 0 0 -80z"/>
<path d="M1061 221 c-15 -27 -14 -103 2 -125 18 -25 61 -18 65 12 4 25 -13 30
-22 7 -10 -26 -26 -16 -26 15 0 26 4 30 26 30 23 0 25 3 22 38 -3 32 -7 37
-30 40 -18 2 -30 -3 -37 -17z m49 -21 c0 -11 -7 -20 -15 -20 -8 0 -15 9 -15
20 0 11 7 20 15 20 8 0 15 -9 15 -20z"/>
<path d="M1160 158 c0 -63 3 -78 15 -78 12 0 15 14 15 70 0 40 4 70 10 70 6 0
10 -7 10 -15 0 -8 5 -15 10 -15 6 0 10 11 10 25 0 22 -4 24 -35 23 l-35 -1 0
-79z"/>
<path d="M1255 217 c-11 -44 -1 -119 18 -131 30 -19 52 4 55 59 5 75 -3 95
-38 95 -23 0 -31 -5 -35 -23z m49 -13 c13 -35 4 -104 -15 -104 -4 0 -11 16
-15 35 -11 58 13 113 30 69z"/>
<path d="M1366 224 c-12 -31 -6 -121 9 -134 18 -15 45 -10 59 12 15 24 -1 35
-19 12 -13 -16 -16 -17 -25 -4 -16 24 -7 45 23 48 21 3 27 9 27 27 0 40 -11
55 -40 55 -16 0 -30 -7 -34 -16z m52 -27 c2 -12 -3 -17 -17 -17 -23 0 -24 1
-15 25 8 19 28 15 32 -8z"/>
<path d="M1465 219 c-5 -14 2 -33 19 -58 14 -20 26 -42 26 -49 0 -18 -18 -14
-29 5 -12 23 -25 11 -16 -16 8 -25 47 -28 66 -5 14 17 11 23 -31 91 -17 27 -5
44 14 18 15 -20 30 -7 20 19 -9 24 -61 21 -69 -5z"/>
<path d="M1730 134 c0 -63 4 -104 10 -104 6 0 10 13 10 29 0 25 3 28 25 24 30
-6 38 17 33 98 l-3 54 -37 2 -38 1 0 -104z m50 25 c0 -81 -24 -77 -28 4 -2 46
0 57 13 57 12 0 15 -13 15 -61z"/>
<path d="M1840 134 c0 -86 3 -104 15 -104 9 0 15 9 15 24 0 18 6 26 22 28 28
4 44 62 31 116 -8 34 -12 37 -46 39 l-37 1 0 -104z m55 26 c0 -34 -5 -55 -12
-57 -10 -4 -13 12 -13 57 0 45 3 61 13 58 7 -3 12 -24 12 -58z"/>
</g>
</svg>
